<?xml version="1.0" ?>
<!-- Uploaded to: SVG Repo, www.svgrepo.com, Generator: SVG Repo Mixer Tools -->
<svg width="800px" height="800px" viewBox="0 0 24 24" enable-background="new 0 0 24 24" id="Layer_1" version="1.1" xml:space="preserve" xmlns="http://www.w3.org/2000/svg" xmlns:xlink="http://www.w3.org/1999/xlink">
<g>
<path d="M20.5,0c-0.1328125,0-0.2597656,0.0527344-0.3535156,0.1464844l-20,20   C0.0527344,20.2402344,0,20.3671875,0,20.5C0,22.4296875,1.5703125,24,3.5,24c0.1328125,0,0.2597656-0.0527344,0.3535156-0.1464844   l20-20C23.9472656,3.7597656,24,3.6328125,24,3.5C24,1.5703125,22.4296875,0,20.5,0z" fill="#303C42"/>
<path d="M22.4665527,3.826416L8.3120117,17.980957c-1.2261353-0.0932007-2.1997681-1.0668335-2.2929688-2.2929688   l14.154541-14.154541C20.5150757,2.6281128,21.3718872,3.4849243,22.4665527,3.826416z" fill="#DFE1DF"/>
<path d="M22.9282837,2.9277954c-0.918335-0.2166138-1.6394653-0.9377441-1.8560791-1.8560791   C21.9907837,1.288269,22.711731,2.0092163,22.9282837,2.9277954z" fill="#DFE1DF"/>
<path d="M3.3007812,22.9921875c-1.2202148-0.0966797-2.1962891-1.0727539-2.2929688-2.2929688l4.1657715-4.1657715   c0.3414917,1.0946655,1.1983032,1.9514771,2.2929688,2.2929688L3.3007812,22.9921875z" fill="#FAA41A"/>
<linearGradient gradientUnits="userSpaceOnUse" id="SVGID_1_" x1="5.3565102" x2="18.6434898" y1="8.9020901" y2="15.0979099">
<stop offset="0" style="stop-color:#FFFFFF;stop-opacity:0.2"/>
<stop offset="1" style="stop-color:#FFFFFF;stop-opacity:0"/>
</linearGradient>
<path d="M20.5,0c-0.1328125,0-0.2597656,0.0527344-0.3535156,0.1464844l-20,20   C0.0527344,20.2402344,0,20.3671875,0,20.5C0,22.4296875,1.5703125,24,3.5,24c0.1328125,0,0.2597656-0.0527344,0.3535156-0.1464844   l20-20C23.9472656,3.7597656,24,3.6328125,24,3.5C24,1.5703125,22.4296875,0,20.5,0z" fill="url(#SVGID_1_)"/>
</g>
<g/>
<g/>
<g/>
<g/>
<g/>
<g/>
<g/>
<g/>
<g/>
<g/>
<g/>
<g/>
<g/>
<g/>
<g/>
</svg>